<?xml version="1.0" encoding="utf-8"?>
<!-- Generator: Adobe Illustrator 24.3.0, SVG Export Plug-In . SVG Version: 6.00 Build 0)  -->
<svg version="1.1" id="Layer_1" xmlns="http://www.w3.org/2000/svg" xmlns:xlink="http://www.w3.org/1999/xlink" x="0px" y="0px"
	 viewBox="0 0 273 122" style="enable-background:new 0 0 273 122;" xml:space="preserve">
<style type="text/css">
	.st0{clip-path:url(#SVGID_2_);fill:none;stroke:#ffffff;stroke-width:1.1;stroke-miterlimit:10;}
	.st1{clip-path:url(#SVGID_2_);fill:none;stroke:#ffffff;stroke-width:1.1;stroke-linecap:round;stroke-miterlimit:10;}
	.st2{clip-path:url(#SVGID_4_);fill:none;stroke:#ffffff;stroke-width:1.1;stroke-miterlimit:10;}
	.st3{clip-path:url(#SVGID_4_);fill:none;stroke:#ffffff;stroke-width:1.1;stroke-linecap:round;stroke-miterlimit:10;}
	.st4{clip-path:url(#SVGID_6_);fill:none;stroke:#ffffff;stroke-width:1.1;stroke-linecap:round;stroke-miterlimit:10;}
	.st5{clip-path:url(#SVGID_6_);fill:none;stroke:#ffffff;stroke-width:1.1;stroke-miterlimit:10;}
	.st6{clip-path:url(#SVGID_8_);fill:none;stroke:#ffffff;stroke-width:1.1;stroke-miterlimit:10;}
	.st7{clip-path:url(#SVGID_8_);fill:none;stroke:#ffffff;stroke-width:1.1;stroke-linecap:round;stroke-miterlimit:10;}
</style>
<g>
	<defs>
		<rect id="SVGID_1_" x="10.52" y="13.31" width="250.5" height="103.35"/>
	</defs>
	<clipPath id="SVGID_2_">
		<use xlink:href="#SVGID_1_"  style="overflow:visible;"/>
	</clipPath>
	<path class="st0" d="M218.81,34.43l2.02,0.22 M61.27,66.35c-2.15,1.45-4.28,4.46-3.45,7.6c0.83,3.14,3.58,3.85,5.07,3.5
		c3.38-0.79,7.98-4.46,8.8-5.64c2.02-2.91,1.69-5.71,0.85-7.71c-0.64-1.53-1.84-2.67-1.84-2.67 M61.68,77.62
		c-1.38,0.82-3.76,2.63-2.74,5.77c0.87,2.69,3.7,3.08,5.08,2.56c1.44-0.54,2.31-0.99,4.47-2.1c1.67-0.86,2.73-1.8,3.45-2.93
		c1.55-2.4,1.39-5.03,0.95-6.46c-0.58-1.86-1.3-2.51-1.3-2.51 M61.85,80.08c0.14-0.36,0.48-0.68,0.86-0.81
		c1.25-0.42,3.93-1.15,4.7,1.17c0.64,1.93-1.95,3.33-3.1,3.72c-0.39,0.13-0.86,0.07-1.17-0.12c-0.38-0.24-1.02-0.75-1.37-1.77
		C61.46,81.35,61.63,80.65,61.85,80.08z M60.06,55.91c-0.82,1.39-2.54,4.15-1.08,7.8c1,2.49,2.82,3.07,4.45,3.23
		c2.66,0.25,7.31-4.89,8.39-7.58c0.61-1.51,0.59-3.58-0.05-5.41c-1.18-3.38-4.47-4.66-4.47-4.66"/>
	<path class="st1" d="M63.49,88.66c-0.1,0.71-0.26,1.64-0.53,2.44c-0.52,1.56-1.65,2.82-3.55,4.38c-1.69,1.39-4.23,3.4-6.1,4.8
		c-1.69,1.27-3.34,2.87-3.7,3.3c-0.82,0.97-1.44,2.2-1.79,3.5c-0.19,0.72-1.52,9.93-1.52,9.93 M33.91,44.14
		c-1.93,1.86-2.86,2.82-6,6.61c-2.47,2.97-4.09,7.2-4.9,13.99c-0.81,6.83,0.07,11.17-0.56,16.32c-0.23,1.89-1,3.28-1,3.28
		l-10.39,20.5"/>
	<path class="st0" d="M58.89,47.88c0.76-0.68,3.24-2.3,4.97-0.19c1.81,2.2-0.11,4.43-1.14,5.2c-0.58,0.43-2.46,0.66-3.72-1.01
		C57.6,50,58.4,48.31,58.89,47.88z M61.93,59.27c0.2-0.75,0.75-1.19,1.45-1.51c0.71-0.32,2.92-1.01,4.19,0.96
		c1.43,2.2-0.31,3.76-0.79,4.32c-0.74,0.85-1.49,0.84-1.91,0.79c-0.79-0.1-1.84-0.61-2.5-1.63C61.58,60.96,61.79,59.79,61.93,59.27z
		 M61.21,69.98c0.17-0.39,0.55-0.84,1.5-1.11c0.8-0.23,3.02-0.85,4.11,1.38c1.16,2.36-0.44,3.48-1.29,4.13
		c-0.94,0.72-1.37,0.7-1.78,0.63c-0.73-0.13-1.86-0.7-2.44-1.84C60.57,71.75,60.95,70.56,61.21,69.98z"/>
	<path class="st1" d="M136.12,13.86H60.33c0,0-3.16-0.19-5.7,2.22c-2.91,2.75-2.24,6.76-2.24,6.76l0.9,11.31l2.91-0.29
		c0,0-1.08-11.79-1.14-12.49c-0.11-1.2,0.48-2.66,2.12-2.91c2.24-0.35,2.95,1.7,3.06,2.76c0.06,0.61,1.15,5.94,1.38,6.99
		c0.4,1.83,3.21,5.97,7.94,5.99c4.41,0.02,66.69,0.16,66.69,0.16 M60.43,22.36c-0.27-0.38-1.59-1.56-3.42-0.82
		c-1.64,0.66-1.76,2.2-1.69,2.89c0.07,0.64,0.87,9.44,0.87,9.44"/>
</g>
<g>
	<defs>
		<rect id="SVGID_3_" x="-161.87" y="-95.53" width="595.28" height="419.53"/>
	</defs>
	<clipPath id="SVGID_4_">
		<use xlink:href="#SVGID_3_"  style="overflow:visible;"/>
	</clipPath>
	<path class="st2" d="M66.08,85.46l0.15,1.94c0.04,0.5-0.32,0.96-0.83,1.01l-11.57,1.16c-0.52,0.06-1-0.32-1.04-0.84l-0.4-4.14"/>
	<path class="st3" d="M49.43,88c2.59-2.31,7.39-10.49,5.82-18.51c-1.57-8.02-4.84-9.48-5.52-12.54c-0.68-3.06-1.16-13.12-1.16-13.12
		c0.42-0.85,0.15-1.06,1.39-3.08c1.19-1.95,1.75-4.72,1.56-6.54c-0.09-0.86-0.73-2.86-1.81-3.6c-0.9-0.61-2.11-1.1-3.9-0.59
		c-1.38,0.39-1.86,1.11-2.35,1.67c-0.49,0.56-1.64,2.05-1.85,2.3c-0.22,0.26-0.81,0.85-1,1.05c-0.77,0.84-2.26,1.62-3.2,2.47
		c-1.17,1.06-2.3,2.84-2.63,4.36c-0.33,1.52-1.6,11.42-3.02,14.82c-1.41,3.4-3.68,7.23-3.68,7.23"/>
	<path class="st2" d="M43.74,31.41c0.95-0.84,1.94-0.8,2.72-0.66c1.9,0.35,2.54,1.89,1.96,2.73c-0.24,0.35-0.82,1.07-1.01,1.28
		c-0.8,0.87-2.26,1.38-4.15,0.68c-0.66-0.25-1.36-0.9-1.21-1.89"/>
</g>
<g>
	<defs>
		<rect id="SVGID_5_" x="10.52" y="13.31" width="250.5" height="103.35"/>
	</defs>
	<clipPath id="SVGID_6_">
		<use xlink:href="#SVGID_5_"  style="overflow:visible;"/>
	</clipPath>
	<path class="st4" d="M208.51,88.66c0.1,0.71,0.26,1.64,0.53,2.44c0.52,1.56,1.65,2.82,3.55,4.38c1.69,1.39,4.23,3.4,6.1,4.8
		c1.69,1.27,3.34,2.87,3.7,3.3c0.82,0.97,1.44,2.2,1.79,3.5c0.19,0.72,1.52,9.94,1.52,9.94 M238.1,44.14c1.93,1.86,2.86,2.82,6,6.6
		c2.47,2.97,4.09,7.2,4.9,13.99c0.81,6.83-0.07,11.17,0.56,16.32c0.24,1.89,1,3.28,1,3.28l10.38,20.5 M46.1,40.53
		c1.91,1.14,2.13,3.22,2.13,3.22"/>
	<path class="st5" d="M213.11,47.88c-0.76-0.68-3.24-2.3-4.98-0.19c-1.8,2.2,0.11,4.43,1.14,5.2c0.58,0.43,2.46,0.66,3.72-1.01
		C214.41,50,213.6,48.31,213.11,47.88z M210.08,59.27c-0.2-0.75-0.75-1.19-1.45-1.51c-0.71-0.32-2.92-1.01-4.19,0.96
		c-1.43,2.2,0.31,3.76,0.79,4.32c0.73,0.85,1.49,0.84,1.91,0.79c0.8-0.1,1.84-0.61,2.5-1.63C210.42,60.96,210.22,59.79,210.08,59.27
		z M210.8,69.98c-0.17-0.39-0.55-0.84-1.5-1.11c-0.8-0.23-3.02-0.85-4.11,1.38c-1.16,2.36,0.44,3.48,1.29,4.13
		c0.94,0.72,1.37,0.7,1.78,0.63c0.73-0.13,1.86-0.7,2.44-1.84C211.44,71.75,211.05,70.56,210.8,69.98z"/>
	<path class="st4" d="M135.89,13.86h75.79c0,0,3.16-0.19,5.7,2.22c2.91,2.75,2.24,6.76,2.24,6.76l-0.9,11.31l-2.91-0.29
		c0,0,1.08-11.79,1.14-12.49c0.11-1.2-0.48-2.66-2.12-2.91c-2.24-0.35-2.95,1.7-3.06,2.76c-0.06,0.61-1.15,5.94-1.38,6.99
		c-0.4,1.83-3.21,5.97-7.94,5.99c-4.41,0.02-66.69,0.16-66.69,0.16 M211.57,22.36c0.26-0.38,1.59-1.56,3.42-0.82
		c1.64,0.66,1.75,2.23,1.69,2.88c-0.06,0.64-0.86,9.44-0.86,9.44"/>
</g>
<g>
	<defs>
		<rect id="SVGID_7_" x="-161.87" y="-95.53" width="595.28" height="419.53"/>
	</defs>
	<clipPath id="SVGID_8_">
		<use xlink:href="#SVGID_7_"  style="overflow:visible;"/>
	</clipPath>
	<path class="st6" d="M206.45,85.46l-0.15,1.94c-0.05,0.5,0.33,0.96,0.83,1.01l11.57,1.16c0.52,0.06,1-0.32,1.04-0.84l0.4-4.14"/>
	<path class="st7" d="M223.1,88c-2.59-2.31-7.39-10.49-5.82-18.51c1.57-8.02,4.84-9.48,5.52-12.54c0.68-3.06,1.17-13.12,1.17-13.12
		c-0.42-0.85-0.16-1.06-1.4-3.08c-1.19-1.95-1.75-4.72-1.55-6.54c0.09-0.86,0.73-2.86,1.81-3.6c0.9-0.61,2.11-1.1,3.9-0.59
		c1.38,0.39,1.86,1.11,2.35,1.67c0.49,0.56,1.64,2.05,1.85,2.3c0.22,0.26,0.81,0.85,1,1.05c0.77,0.84,2.26,1.62,3.2,2.47
		c1.17,1.06,2.3,2.84,2.63,4.36c0.33,1.52,1.6,11.42,3.02,14.82c1.41,3.4,3.68,7.23,3.68,7.23"/>
	<path class="st6" d="M228.8,31.41c-0.95-0.84-1.94-0.8-2.72-0.66c-1.9,0.35-2.54,1.89-1.96,2.73c0.24,0.35,0.82,1.07,1.01,1.28
		c0.81,0.87,2.26,1.38,4.15,0.68c0.66-0.25,1.36-0.9,1.2-1.89"/>
	<path class="st7" d="M226.17,40.53c-1.91,1.14-2.13,3.22-2.13,3.22"/>
	<path class="st6" d="M221.05,34.62l-4.98-0.48l-3.99-0.36c-0.53-0.04-0.99,0.35-1.03,0.88l-0.32,5.79
		c-0.05,0.5,0.15,0.99,0.53,1.32c1.2,1.05,4.73,3.57,5.39,4.86c0.78,1.53,1.31,3.74-0.46,6.4c-1.76,2.66-4.08,2.99-5.52,2.67
		c-2.45-0.55-4.92-5.44-5.58-6.42c-0.45-0.67-1.28-2.58-1.3-4.36c-0.01-1.81,0.69-5.24,4.9-8.14c0.66-0.45,1.48-0.84,2.25-1.1
		 M61.57,35.7c0.77,0.26,1.59,0.65,2.25,1.11c4.21,2.93,4.91,6.38,4.9,8.2c-0.01,1.8-0.84,3.71-1.29,4.39
		c-0.66,0.98-3.12,5.91-5.57,6.47c-1.44,0.33-3.75-0.01-5.52-2.69c-1.76-2.68-1.24-4.9-0.46-6.44c0.66-1.31,4.19-3.84,5.39-4.9
		c0.38-0.33,0.57-0.82,0.53-1.33l-0.32-5.83c-0.04-0.53-0.5-0.92-1.03-0.88l-3.99,0.36l-2.93,0.26l-2.02,0.21 M211.01,66.34
		c2.15,1.45,4.28,4.47,3.45,7.6c-0.83,3.14-3.57,3.85-5.06,3.5c-3.38-0.79-7.98-4.46-8.79-5.64c-2.02-2.91-1.69-5.71-0.85-7.71
		c0.64-1.53,1.84-2.67,1.84-2.67 M210.6,77.62c1.38,0.82,3.75,2.63,2.74,5.77c-0.86,2.69-3.7,3.07-5.08,2.56
		c-1.44-0.54-2.3-0.99-4.46-2.1c-1.67-0.86-2.72-1.8-3.45-2.93c-1.54-2.4-1.39-5.03-0.94-6.46c0.58-1.86,1.3-2.51,1.3-2.51
		 M210.43,80.08c-0.14-0.36-0.48-0.68-0.86-0.81c-1.25-0.42-3.93-1.15-4.7,1.17c-0.64,1.93,1.95,3.33,3.1,3.72
		c0.39,0.13,0.86,0.07,1.17-0.12c0.38-0.24,1.02-0.75,1.37-1.77C210.82,81.35,210.65,80.65,210.43,80.08z M212.22,55.91
		c0.82,1.39,2.54,4.15,1.08,7.8c-1,2.49-2.81,3.07-4.45,3.23c-2.66,0.25-7.3-4.89-8.39-7.58c-0.61-1.51-0.59-3.58,0.05-5.41
		c1.18-3.38,4.47-4.66,4.47-4.66"/>
</g>
</svg>
